<svg width="32" height="32" viewBox="0 0 32 32" fill="none" xmlns="http://www.w3.org/2000/svg">
<path d="M11.265 5.805L4.77748 16L11.265 26.195C11.3773 26.3611 11.4552 26.548 11.494 26.7447C11.5329 26.9414 11.5319 27.1439 11.4911 27.3402C11.4504 27.5366 11.3706 27.7227 11.2567 27.8877C11.1428 28.0527 10.9969 28.1931 10.8278 28.3008C10.6586 28.4084 10.4696 28.4811 10.2719 28.5144C10.0741 28.5478 9.87176 28.5411 9.67665 28.4949C9.48155 28.4487 9.29769 28.3638 9.13595 28.2453C8.97421 28.1268 8.83787 27.9771 8.73498 27.805L1.73498 16.805C1.58195 16.5644 1.50067 16.2851 1.50067 16C1.50067 15.7148 1.58195 15.4356 1.73498 15.195L8.73498 4.195C8.95378 3.87146 9.29015 3.64602 9.67258 3.56662C10.055 3.48721 10.4533 3.56011 10.7828 3.7698C11.1124 3.97949 11.3471 4.30945 11.4371 4.68951C11.5272 5.06957 11.4654 5.46976 11.265 5.805ZM30.265 15.195L23.265 4.195C23.1621 4.02291 23.0257 3.87319 22.864 3.75469C22.7023 3.63619 22.5184 3.55133 22.3233 3.50511C22.1282 3.45889 21.9258 3.45225 21.7281 3.48559C21.5304 3.51893 21.3414 3.59157 21.1722 3.69921C21.003 3.80686 20.8572 3.94733 20.7432 4.11231C20.6293 4.27729 20.5496 4.46345 20.5088 4.65976C20.4681 4.85608 20.4671 5.05858 20.5059 5.25528C20.5448 5.45199 20.6227 5.63891 20.735 5.805L27.2225 16L20.735 26.195C20.6227 26.3611 20.5448 26.548 20.5059 26.7447C20.4671 26.9414 20.4681 27.1439 20.5088 27.3402C20.5496 27.5366 20.6293 27.7227 20.7432 27.8877C20.8572 28.0527 21.003 28.1931 21.1722 28.3008C21.3414 28.4084 21.5304 28.4811 21.7281 28.5144C21.9258 28.5478 22.1282 28.5411 22.3233 28.4949C22.5184 28.4487 22.7023 28.3638 22.864 28.2453C23.0257 28.1268 23.1621 27.9771 23.265 27.805L30.265 16.805C30.418 16.5644 30.4993 16.2851 30.4993 16C30.4993 15.7148 30.418 15.4356 30.265 15.195Z" fill="white"/>
</svg>
